<?xml version="1.0" standalone="no"?>
<!DOCTYPE svg PUBLIC "-//W3C//DTD SVG 20010904//EN"
 "http://www.w3.org/TR/2001/REC-SVG-20010904/DTD/svg10.dtd">
<svg version="1.0" xmlns="http://www.w3.org/2000/svg"
 width="700.000000pt" height="700.000000pt" viewBox="0 0 700.000000 700.000000"
 preserveAspectRatio="xMidYMid meet">
<metadata>
Created by potrace 1.14, written by Peter Selinger 2001-2017
</metadata>
<g transform="translate(0.000000,700.000000) scale(0.100000,-0.100000)"
fill="#000000" stroke="none">
<path d="M1685 6993 c-405 -50 -755 -328 -894 -710 -70 -189 -64 35 -66 -2743
0 -1377 3 -2538 7 -2580 43 -407 345 -775 744 -905 170 -56 52 -53 2444 -54
2141 -1 2216 0 2256 18 43 20 74 56 91 106 6 19 9 899 9 2475 -1 2246 -3 2447
-18 2475 -21 38 -55 68 -94 84 -24 9 -530 13 -2255 14 l-2224 3 -65 21 c-400
127 -616 502 -520 898 38 155 161 334 285 414 22 14 42 28 45 32 21 24 186 85
267 98 35 6 939 10 2250 10 2146 0 2193 1 2230 20 103 52 127 192 48 274 -19
20 -52 41 -73 47 -25 7 -736 9 -2237 8 -1210 0 -2213 -3 -2230 -5z m-532
-1948 c154 -118 360 -200 547 -219 25 -2 986 -5 2135 -5 l2090 -1 -2 -2218 c0
-1219 -2 -2225 -2 -2235 -1 -17 -98 -17 -2113 -14 -1162 1 -2126 6 -2141 10
-230 62 -412 201 -507 388 -32 63 -65 161 -76 229 -7 40 -13 4120 -6 4120 1 0
35 -25 75 -55z"/>
<path d="M3404 3712 c-28 -10 -67 -31 -85 -46 -33 -28 -99 -121 -99 -140 0 -5
-30 -86 -66 -180 -37 -94 -79 -205 -94 -246 -28 -75 -195 -511 -207 -540 -3
-8 -7 -19 -9 -25 -4 -14 -303 -795 -314 -820 -40 -93 -82 -215 -84 -251 -8
-96 63 -175 162 -182 50 -3 63 0 102 26 54 35 60 47 145 272 36 96 70 184 75
195 5 11 32 81 60 155 l51 135 455 -1 c260 0 458 -5 463 -10 5 -5 43 -101 86
-214 43 -113 86 -227 97 -255 11 -27 33 -88 50 -134 50 -137 113 -183 223
-166 84 12 151 103 138 187 -4 30 -42 136 -128 358 -39 100 -140 366 -335 875
-78 204 -159 415 -180 470 -21 55 -64 168 -95 250 -75 197 -112 246 -213 285
-64 24 -130 25 -198 2z m128 -529 c15 -37 28 -71 28 -76 0 -5 6 -23 14 -40 8
-18 51 -129 96 -247 45 -118 97 -254 116 -302 19 -49 34 -91 34 -95 0 -9 -625
-11 -634 -2 -5 5 73 226 103 294 11 23 111 285 115 300 2 6 8 21 13 35 6 14
26 66 44 117 19 50 36 90 38 87 2 -2 17 -34 33 -71z"/>
<path d="M1816 6060 c-40 -12 -104 -77 -112 -114 -23 -99 34 -201 124 -223 21
-5 911 -8 2072 -8 l2035 1 45 24 c59 33 91 88 89 155 -1 28 -8 61 -15 75 -19
38 -67 79 -105 90 -43 13 -4092 12 -4133 0z"/>
</g>
</svg>
